<svg version="1.2" xmlns="http://www.w3.org/2000/svg" viewBox="0 0 860 321" width="860" height="321">
	<title>boss</title>
	<style>
		.s0 { fill: #ffffff } 
	</style>
	<path class="s0" d="m16.7 271.2h6.7v20.1h25.7v-20.1h6.4v46.9h-6.4v-21.4h-25.7v21.4h-6.7zm142.7 30c0 11.8-7.1 18.1-19.4 18.1-12.5 0-20.1-5.6-20.1-18.1v-30h6.7v30c0 8.3 4.9 12.9 13.4 12.9 8.3 0 13-4.6 13-12.9v-30h6.4zm81.2 18.4c-14.8 0.9-23.7-11.7-23.7-23.9 0-13.7 7.8-25.5 23.4-25.5 10.8 0 19.2 4.5 21 15.6h-6.4c-1.4-7.1-7.4-10.5-14.6-10.5-12 0-17 10.1-17 20.1 0 9.9 6.3 19.3 18.1 19 6.1-0.2 11-1.3 13.5-5.3 1.7-2.5 1.3-7 1.1-10.3h-15.7v-5.4h21.5v17.7c-5.6 6.9-12.3 8-21.2 8.5zm101.4-49.4c15.6 0 23.5 11.8 23.5 24.6 0 12.7-7.9 24.5-23.5 24.5-15.6 0-23.5-11.8-23.5-24.5 0-12.8 7.9-24.6 23.5-24.6zm0 44c11.8 0 17-10.1 17-19.4 0-9.4-5.2-19.5-17-19.5-12.1 0-17 10.1-17 19.5 0 9.3 4.9 19.4 17 19.4zm148.6-42.9h17.6c4.5 0 10.1 0 13 1.6 3.3 2 5.8 5.3 5.8 9.8 0 5.1-2.7 8.9-7.2 10.7 6.1 1.1 9.4 5.6 9.4 11.4 0 6.9-5.3 13.4-14.9 13.4h-23.7zm6.5 41.8h16.3c5.6 0 9.1-3.3 9.1-8.5 0-6-5.1-7.8-10.7-7.8h-14.7zm0-21.7h12.9c7.4 0 10.5-2.4 10.5-7.3 0-6.5-4.7-7.6-10.5-7.6h-12.9zm114.1-21.3c15.7 0 23.7 11.9 23.7 24.6 0 12.7-8 24.6-23.7 24.6-15.6 0-23.4-11.9-23.4-24.6 0-12.7 7.8-24.6 23.4-24.6zm0 44c12.1 0 17-10 17-19.4 0-9.4-4.9-19.4-17-19.4-11.8 0-16.9 10-16.9 19.4 0 9.4 5.1 19.4 16.9 19.4zm113.8-29c-0.7-6.9-5.4-9.8-12.1-9.8-5.6 0-10.9 2-10.9 8 0 5.8 7.8 6.7 15.6 8.5 7.8 1.6 15.6 4.2 15.6 13.6 0 9.9-10.2 13.9-19.2 13.9-10.9 0-20.1-5.2-20.1-16.5h6c0 7.8 7 11.3 14.3 11.3 6.1 0 12.6-1.7 12.6-8.7 0-6.4-7.9-7.3-15.7-9.1-7.8-1.6-15.9-3.8-15.9-12.5 0-9.4 9-13.7 17.9-13.7 10.1 0 17.7 4.5 18.1 15zm105.9 0c-0.9-6.9-5.6-9.8-12.3-9.8-5.3 0-10.9 2-10.9 8 0 5.8 7.8 6.7 15.9 8.5 7.8 1.6 15.6 4.2 15.6 13.6 0 9.9-10.3 13.9-19.2 13.9-11 0-20.4-5.2-20.4-16.5h6.3c0 7.8 6.9 11.3 14.3 11.3 5.8 0 12.5-1.7 12.5-8.7 0-6.4-8-7.3-15.8-9.1-7.9-1.6-15.7-3.8-15.7-12.5 0-9.4 8.7-13.7 17.9-13.7 9.8 0 17.6 4.5 17.9 15zm-691.4-271.7c23.1 1.3 38 13.6 39.4 15.2 11.8 10.9 15.4 27.5 12.5 43.3-3.8 26.6-36.9 37.8-36.9 37.8 27.7 3.4 48.5 24.1 51.6 46.5 2.7 21.9-5.3 41.3-23.4 54.9-18.4 13.7-45.2 18.1-59.7 18.1h-118.4v-9.3c15.2 0.2 17 0.2 17-5.9-0.3-22.7 0-181.8 0-186.1 0-4.9-2.5-5.1-17-5.1-0.2-3.8 0.2-9.4 0.2-9.4zm-65.2 104.1v101.2h27.7c0 0 15.6 1.2 29.7-10.2 13.8-11.2 21-27.7 19.4-46.7-1.1-17-14-41.2-43.1-44.3 0 0-33.7 0-33.7 0zm0-94.3v84.5h30.6c0 0 2.7-0.2 4.2-0.7 17.9-1.5 29.3-23 30.4-38.6 1.8-16.8-8.5-44.5-34.2-45.2-7.6-0.2-31 0-31 0zm380.5 135.4c-10.3 30.6-30.8 49.9-54.5 62.4-31.1 16.7-75.6 19.4-106.6 0.9-19.2-11.4-68.2-41.8-61.7-113.5 1.4-15.5 9.2-54.1 52.3-83.2 29.5-19.2 71.9-24.8 111.5-6.4 61.7 28.1 74.6 97.6 59 139.8zm-132.5-133.6c-14.8 9.8-25 32.4-30 51.2-7.8 28.4-6.2 61.9 1.6 96.3 8.1 34.4 30.2 46.5 43.4 49.4 24.5 5.6 40.6-8.7 49.3-21.9 17-25.7 21.3-78.7 15.9-109.1-4.9-28.1-12.5-47.8-27.3-61-16.5-14.5-40.2-13.4-52.9-4.9zm313.7-1.5c0.2 16 0 49.3 0 49.3l-7.8 0.3c-4.7-20.8-14.8-38.7-32-47-16.5-8-41.5-12-57.8 2.3-9.7 8.5-11 17.2-7.6 27 5.8 14.5 21.9 19 34.4 24.6 10.2 4 32.1 11.2 32.1 11.2 24.4 8.4 51.4 25 58.8 52.5 3.4 11.8 3.4 25.2 0.7 37.3-6.1 26.8-23.3 33.3-33.1 40-4.9 3.3-50.9 21-106.4 2.9-11.3-3.8-24.5-8.3-24.5-8.3v-60.1c0 0 6 0.2 8.5 0.2 3.8 9.6 7.1 21.3 15.2 32.9 18.7 27.2 45.3 35.5 74.6 29.2 11.6-2.6 24.3-10.7 27.7-22.7 4.2-13.7 2.9-36.2-38.2-51.4-29.7-13.7-67.1-19.3-84.7-52.3-6.9-18.6-4.9-50.7 17.9-66.4 23-15.6 45.3-19.2 72.4-15.6 26.8 3.8 33.9 7.3 49.8 14.1zm195.7 0c0.2 16 0 49.3 0 49.3l-7.8 0.3c-4.7-20.8-14.7-38.7-31.9-47-16.6-8-41.6-12-57.9 2.3-9.6 8.5-11 17.2-7.6 27 5.8 14.5 21.9 19 34.4 24.6 10.3 4 32.2 11.2 32.2 11.2 24.3 8.4 51.4 25 58.7 52.5 3.4 11.8 3.4 25.2 0.7 37.3-6 26.8-23.2 33.3-33.1 40-4.9 3.3-50.9 21-106.3 2.9-11.4-3.8-24.6-8.3-24.6-8.3v-60.1c0 0 6 0.2 8.5 0.2 3.8 9.6 7.1 21.3 15.2 32.9 18.8 27.2 45.3 35.5 74.6 29.2 11.6-2.6 24.4-10.7 27.7-22.7 4.3-13.7 2.9-36.2-38.2-51.4-29.7-13.7-67-19.3-84.7-52.3-6.9-18.6-4.9-50.7 18.1-66.4 22.8-15.6 45.2-19.2 72-15.6 27 3.8 34.2 7.3 50 14.1z"/>
</svg>