<?xml version="1.0" encoding="utf-8"?>
<!-- Generator: Adobe Illustrator 23.0.3, SVG Export Plug-In . SVG Version: 6.00 Build 0)  -->
<svg version="1.1" id="Ebene_1" xmlns="http://www.w3.org/2000/svg" xmlns:xlink="http://www.w3.org/1999/xlink" x="0px" y="0px"
	 width="770px" height="160px" viewBox="0 0 770 160" style="enable-background:new 0 0 770 160;" xml:space="preserve">
<style type="text/css">
	.st0{fill:#FFFFFF;}
</style>
<g>
	<path class="st0" d="M152.1322021,5.3065076l-9.3554993,34.9151688c-0.0597534,0.2230186-0.3385315,0.2977142-0.5017853,0.1344528
		l-25.5596771-25.5596752c-0.1632614-0.1632614-0.088562-0.4420347,0.1344528-0.5017929l34.9151688-9.3554907
		C151.9878845,4.8794122,152.1919556,5.0834885,152.1322021,5.3065076z"/>
	<path class="st0" d="M110.5361176,15.3260012l-9.3554916,34.9151688c-0.0597534,0.2230186-0.3385315,0.2977142-0.5017929,0.1344528
		L75.1191635,24.8159466c-0.1632614-0.1632614-0.0885696-0.4420338,0.1344528-0.5017929l34.9151688-9.3554897
		C110.3917999,14.8989058,110.5958786,15.1029825,110.5361176,15.3260012z"/>
	<path class="st0" d="M142.1127014,46.9025879l-9.355484,34.9151688c-0.0597534,0.2230148-0.3385315,0.2977142-0.5018005,0.1344528
		l-25.5596695-25.5596771c-0.1632614-0.1632614-0.088562-0.4420357,0.1344528-0.5017929l34.9151611-9.3554916
		C141.9683838,46.4754906,142.1724701,46.6795692,142.1127014,46.9025879z"/>
	<path class="st0" d="M64.4001389,152.1193237L93.555809,98.1358643c0.3236694-0.5992889,0.8798981-1.0387878,1.5377884-1.215065
		l33.6105042-9.0059052c0.5677948-0.1521454,1.0873718,0.367424,0.9352264,0.9352188l-9.0059052,33.6105042
		c-0.1762848,0.6578979-0.6157837,1.2141266-1.215065,1.5377884l-53.9834671,29.1556778
		C64.7674866,153.5145264,64.0396881,152.7867279,64.4001389,152.1193237z"/>
	<path class="st0" d="M2.1478355,153.8588715l61.157177-86.1755981c0.3337975-0.4703445,0.8213081-0.8094101,1.3784065-0.9586792
		l33.7792587-9.0511284c0.5677948-0.1521416,1.0873642,0.3674278,0.9352264,0.9352226l-9.0511246,33.7792587
		c-0.1492767,0.5570984-0.4883423,1.0446167-0.9586868,1.3784103L3.2124979,154.9235382
		C2.5113037,155.4211578,1.6502112,154.5600586,2.1478355,153.8588715z"/>
	<path class="st0" d="M3.9172921,91.6364746l29.1556721-53.9834633c0.3236656-0.5992813,0.8798943-1.0387802,1.5377884-1.2150612
		l33.6105003-9.005909c0.5677948-0.1521397,1.0873642,0.3674297,0.9352264,0.9352245l-9.005909,33.6105042
		c-0.176281,0.6578941-0.6157799,1.2141228-1.2150612,1.5377884L4.9520411,92.6712265
		C4.2846351,93.0316849,3.5568361,92.3038864,3.9172921,91.6364746z"/>
</g>
<g>
	<path class="st0" d="M236.0748291,61.6694336c-7.1621094,0-12.668457,2.5385742-16.3916016,7.550293V38.8876953h-14.7802734
		v82.2353516h14.7802734V89.9516602c0-5.2124023,0.8891602-9.2338867,2.6430664-11.953125
		c1.7080078-2.6503906,4.6889648-3.9941406,8.8588867-3.9941406c6.6176758,0,9.8349609,3.9804688,9.8349609,12.168457v34.9501953
		h14.668457V84.0615234c0-7.5859375-1.8632813-13.2763672-5.5380859-16.9135742
		C246.4761963,63.5126953,241.7403564,61.6694336,236.0748291,61.6694336z"/>
	<path class="st0" d="M304.2745361,63.3598633c-6.1328125,20.5102539-10.2392578,34.8759766-12.2265625,42.7685547
		c-1.5214844-6.2119141-5.8623047-20.5708008-12.9326172-42.7773438l-0.1113281-0.3481445h-15.8544922l21.1826172,59.512207
		c-1.2119141,3.5102539-2.6357422,5.9589844-4.234375,7.2792969c-1.6064453,1.3251953-3.9296875,1.9970703-6.9042969,1.9970703
		c-1.2333984,0-2.6767578-0.0742188-4.2895508-0.2202148l-0.5449219-0.0493164v12.3222656l0.4360352,0.0561523
		c2.3144531,0.2978516,4.6914063,0.4487305,7.0654297,0.4487305c6.5478516,0,11.4492188-1.5043945,14.5683594-4.4716797
		c3.0810547-2.9316406,6.078125-8.6831055,8.9091797-17.0961914l19.8886719-59.7783203H304.381958L304.2745361,63.3598633z"/>
	<path class="st0" d="M359.7608643,61.6694336c-7.5585938,0-13.1865234,2.6567383-16.7558594,7.902832
		c-0.0664063-1.9121094-0.2441406-3.9682617-0.5283203-6.1342773l-0.0576172-0.4350586h-14.2861328l0.0117188,0.512207
		c0.0742188,3.0605469,0.1113281,7.6928711,0.1113281,13.7675781v65.9550781h14.7802734v-26.7578125
		c3.0253906,3.9672852,7.9316406,5.9765625,14.6132813,5.9765625c7.3056641,0,13.4345703-2.8637695,18.2177734-8.5112305
		c4.7607422-5.6240234,7.1748047-13.472168,7.1748047-23.3271484c0-8.671875-2.2070313-15.7333984-6.5605469-20.9887695
		C372.1046143,64.3476563,366.4786377,61.6694336,359.7608643,61.6694336z M368.0401611,91.1738281
		c0,6.1660156-1.1484375,10.9692383-3.4121094,14.2753906c-2.2558594,3.293457-5.4472656,4.8945313-9.7568359,4.8945313
		c-4.5253906,0-7.6582031-1.4863281-9.5771484-4.5449219c-1.9404297-3.0878906-2.9248047-7.7089844-2.9248047-13.7358398
		c0-6.1645508,1.0537109-10.7978516,3.1328125-13.7714844c2.0400391-2.918457,5.4169922-4.3984375,10.0361328-4.3984375
		c4.0126953,0,7.0244141,1.4765625,9.2060547,4.5146484C366.9307861,81.4560547,368.0401611,85.7514648,368.0401611,91.1738281z"/>
	<path class="st0" d="M439.8487549,70.7719727c-1.9697266-2.8007813-4.7470703-5.0439453-8.2558594-6.6674805
		c-3.4970703-1.6157227-7.6240234-2.4350586-12.2675781-2.4350586c-8.8583984,0-15.7373047,2.902832-20.4443359,8.628418
		c-4.6845703,5.6953125-7.0595703,13.2797852-7.0595703,22.5429688c0,8.2270508,2.2792969,15.2856445,6.7744141,20.9794922
		c4.5234375,5.7304688,11.2734375,8.6362305,20.0625,8.6362305c4.1123047,0,7.8339844-0.5893555,11.0605469-1.7524414
		c3.2412109-1.1679688,5.8847656-2.7788086,7.8544922-4.7871094c1.9453125-1.9814453,3.484375-3.9404297,4.5771484-5.8222656
		c1.0878906-1.8764648,1.9453125-3.8964844,2.5478516-6.003418l0.1826172-0.6376953h-14.8818359l-0.1308594,0.3012695
		c-0.9248047,2.1333008-2.1630859,3.8051758-3.6796875,4.9697266c-1.4970703,1.1479492-3.8808594,1.7304688-7.0859375,1.7304688
		c-3.9433594,0-6.9189453-1.4418945-9.0986328-4.4086914c-2.1005859-2.8564453-3.2060547-6.418457-3.2871094-10.5942383h38.4951172
		l0.0576172-0.434082c0.1503906-1.1352539,0.2265625-2.8027344,0.2265625-4.9555664
		c0-3.5854492-0.4550781-7.0332031-1.3525391-10.2470703C443.2442627,76.5913086,441.7989502,73.5488281,439.8487549,70.7719727z
		 M419.2139893,72.7817383c3.8154297,0,6.671875,1.2231445,8.4912109,3.6347656
		c1.7734375,2.3535156,2.7431641,5.4658203,2.8857422,9.2563477H407.100708
		C408.0753174,76.9995117,412.0421143,72.7817383,419.2139893,72.7817383z"/>
	<path class="st0" d="M509.616333,104.7314453v-65.84375h-14.7802734v27.8076172
		c-1.0029297-1.1669922-2.4355469-2.21875-4.2773438-3.1396484c-2.5019531-1.2514648-5.8300781-1.8862305-9.8916016-1.8862305
		c-8.046875,0-14.5332031,2.9213867-19.2773438,8.6831055c-4.7216797,5.7324219-7.1152344,13.2241211-7.1152344,22.2661133
		c0,8.9667969,2.2060547,16.2509766,6.5556641,21.6499023c4.3759766,5.4331055,10.3017578,8.1879883,17.6142578,8.1879883
		c7.6953125,0,13.2167969-2.3022461,16.4423828-6.8496094c0.0791016,1.4091797,0.2490234,3.1098633,0.5087891,5.081543
		l0.0576172,0.4345703h14.2851563l-0.0107422-0.5107422C509.6524658,117.0732422,509.616333,111.878418,509.616333,104.7314453z
		 M482.3341064,110.2324219c-4.0175781,0-7.0849609-1.5146484-9.3769531-4.6303711
		c-2.2949219-3.1176758-3.4580078-7.6357422-3.4580078-13.4282227c0-5.7939453,1.1650391-10.3505859,3.4619141-13.543457
		c2.2607422-3.1435547,5.5634766-4.7373047,9.8173828-4.7373047c4.96875,0,8.3193359,1.4487305,9.9570313,4.3051758
		c1.6884766,2.9487305,2.5449219,7.5014648,2.5449219,13.53125c0,5.7412109-0.9140625,10.3344727-2.7177734,13.6523438
		C490.8135986,108.6005859,487.3721924,110.2324219,482.3341064,110.2324219z"/>
	<rect x="524.6173096" y="63.0029297" class="st0" width="14.7802734" height="58.1201172"/>
	<rect x="524.6173096" y="38.8876953" class="st0" width="14.7802734" height="14.4467773"/>
	<path class="st0" d="M591.9639893,63.453125c-0.1591797,1.5805664-0.2988281,3.1342773-0.4199219,4.640625
		c-0.8955078-1.387207-2.2832031-2.6933594-4.1464844-3.8994141c-2.5917969-1.675293-6.2724609-2.5249023-10.9394531-2.5249023
		c-7.3056641,0-13.4345703,2.8447266-18.2167969,8.4545898c-4.7617188,5.5849609-7.1757813,13.0039063-7.1757813,22.0498047
		c0,8.2314453,2.2070313,15.0874023,6.5595703,20.3764648c4.375,5.3198242,10.2998047,8.0170898,17.6103516,8.0170898
		c7.3613281,0,12.7910156-2.4892578,16.1699219-7.4047852v1.5708008c0,6.3183594-0.9277344,11.0151367-2.7587891,13.9599609
		c-1.7832031,2.8671875-5.2490234,4.3208008-10.2998047,4.3208008c-6.0263672,0-9.6132813-2.3525391-10.9648438-7.1914063
		l-0.1015625-0.3657227h-14.9404297l0.0615234,0.5551758c0.2265625,2.0380859,0.7441406,4.0288086,1.5361328,5.9174805
		c0.796875,1.8950195,2.0791016,3.8476563,3.8095703,5.8046875c1.7529297,1.9814453,4.3837891,3.5991211,7.8212891,4.8081055
		c3.4111328,1.1987305,7.5234375,1.8066406,12.2236328,1.8066406c9.9589844,0,17.2285156-2.6015625,21.6064453-7.7329102
		c4.3554688-5.1103516,6.5644531-12.6225586,6.5644531-22.3276367V79.949707c0-8.1098633,0.0361328-13.4858398,0.1113281-16.434082
		l0.0126953-0.5126953h-14.078125L591.9639893,63.453125z M589.2022705,78.0458984
		c1.7568359,2.8349609,2.6474609,7.2143555,2.6474609,13.0170898c0,5.5810547-0.9824219,9.9199219-2.9199219,12.8959961
		c-1.8925781,2.9091797-5.2285156,4.3842773-9.9160156,4.3842773c-3.7998047,0-6.7978516-1.4643555-9.1630859-4.4765625
		c-2.3623047-3.0053711-3.5605469-7.1264648-3.5605469-12.2485352c0-5.6391602,1.1992188-10.0610352,3.5634766-13.1420898
		c2.3339844-3.0410156,5.5283203-4.5830078,9.4941406-4.5830078
		C584.1759033,73.8930664,587.491333,75.2905273,589.2022705,78.0458984z"/>
	<rect x="620.9639893" y="63.0029297" class="st0" width="14.7802734" height="58.1201172"/>
	<rect x="620.9639893" y="38.8876953" class="st0" width="14.7802734" height="14.4467773"/>
	<path class="st0" d="M668.7491455,47.1113281h-14.7792969v15.8916016h-9.1132813v11.5571289h9.1132813v31.5048828
		c0,5.2119141,1.1435547,9.1914063,3.3984375,11.8266602c2.2724609,2.6601563,6.0458984,4.0092773,11.2148438,4.0092773
		c4.5488281,0,7.96875-0.3833008,10.1640625-1.1386719l0.3369141-0.1157227v-10.6162109l-0.5830078,0.0981445
		c-0.8496094,0.1430664-2.2050781,0.215332-4.0283203,0.215332c-2.2080078,0-3.7255859-0.4643555-4.5097656-1.3808594
		c-0.8056641-0.9394531-1.2138672-2.5874023-1.2138672-4.8979492V74.5600586h11.6689453V63.0029297h-11.6689453V47.1113281z"/>
	<path class="st0" d="M736.9825439,106.6206055V81.5058594c0-13.0112305-7.90625-19.6850586-23.4990234-19.8364258
		c-0.1679688-0.0014648-0.3339844-0.0024414-0.4990234-0.0024414c-7.6972656,0-13.4931641,1.6879883-17.2304688,5.0185547
		c-3.8222656,3.40625-5.9902344,7.8544922-6.4433594,13.222168l-0.0458984,0.5419922h14.1865234l0.0732422-0.4130859
		c0.4248047-2.4013672,1.2744141-4.2358398,2.5244141-5.4516602c1.2314453-1.1962891,3.5439453-1.8032227,6.8740234-1.8032227
		c3.6796875,0,6.2060547,0.7817383,7.5087891,2.3227539c1.3222656,1.5683594,1.9931641,3.6845703,1.9931641,6.2900391v3.3896484
		h-8.1679688c-8.6542969,0-15.4775391,1.6171875-20.2792969,4.8061523
		c-4.8681641,3.2333984-7.3359375,8.140625-7.3359375,14.5854492c0,5.0004883,1.7099609,9.3413086,5.0820313,12.9013672
		c3.3769531,3.5693359,8.3779297,5.3793945,14.8652344,5.3793945c7.5800781,0,13.0048828-2.1894531,16.1533203-6.5117188
		c0.1689453,2.2314453,0.4404297,3.8271484,0.8261719,4.8540039l0.1210938,0.3242188h14.2011719l-0.1425781-0.6137695
		C737.2403564,118.3369141,736.9825439,113.6640625,736.9825439,106.6206055z M710.2559814,111.34375
		c-2.8144531,0-4.9941406-0.7543945-6.4804688-2.2426758c-1.4882813-1.4873047-2.2431641-3.4057617-2.2431641-5.703125
		c0-3.1074219,1.0712891-5.3149414,3.2734375-6.7485352c2.2421875-1.4580078,5.8701172-2.1972656,10.7841797-2.1972656h6.9462891
		v1.1669922c0,4.9970703-0.8359375,8.9301758-2.4853516,11.6899414
		C718.4503174,109.9863281,715.1553955,111.34375,710.2559814,111.34375z"/>
	<rect x="752.3175049" y="38.8876953" class="st0" width="14.7802734" height="82.2353516"/>
</g>
</svg>
